<?xml version="1.0" encoding="UTF-8" standalone="no"?>
<!-- Created with Inkscape (http://www.inkscape.org/) -->

<svg
   xmlns:dc="http://purl.org/dc/elements/1.1/"
   xmlns:cc="http://creativecommons.org/ns#"
   xmlns:rdf="http://www.w3.org/1999/02/22-rdf-syntax-ns#"
   xmlns:svg="http://www.w3.org/2000/svg"
   xmlns="http://www.w3.org/2000/svg"
   xmlns:sodipodi="http://sodipodi.sourceforge.net/DTD/sodipodi-0.dtd"
   xmlns:inkscape="http://www.inkscape.org/namespaces/inkscape"
   version="1.1"
   id="svg815"
   xml:space="preserve"
   width="85.333336"
   height="85.333336"
   viewBox="0 0 85.333336 85.333336"
   sodipodi:docname="brownie.ai.final-_1_.svg"
   inkscape:version="0.92.3 (2405546, 2018-03-11)"><metadata
     id="metadata821"><rdf:RDF><cc:Work
         rdf:about=""><dc:format>image/svg+xml</dc:format><dc:type
           rdf:resource="http://purl.org/dc/dcmitype/StillImage" /></cc:Work></rdf:RDF></metadata><defs
     id="defs819"><clipPath
       clipPathUnits="userSpaceOnUse"
       id="clipPath835"><path
         d="M 0,0 H 64 V 64 H 0 Z"
         id="path833"
         inkscape:connector-curvature="0" /></clipPath><clipPath
       clipPathUnits="userSpaceOnUse"
       id="clipPath855"><path
         d="M 0,0 H 64 V 64 H 0 Z"
         id="path853"
         inkscape:connector-curvature="0" /></clipPath><clipPath
       clipPathUnits="userSpaceOnUse"
       id="clipPath967"><path
         d="M 0,0 H 64 V 64 H 0 Z"
         id="path965"
         inkscape:connector-curvature="0" /></clipPath><clipPath
       clipPathUnits="userSpaceOnUse"
       id="clipPath1003"><path
         d="M 0,0 H 64 V 64 H 0 Z"
         id="path1001"
         inkscape:connector-curvature="0" /></clipPath><clipPath
       clipPathUnits="userSpaceOnUse"
       id="clipPath1019"><path
         d="M 0,0 H 64 V 64 H 0 Z"
         id="path1017"
         inkscape:connector-curvature="0" /></clipPath><clipPath
       clipPathUnits="userSpaceOnUse"
       id="clipPath1131"><path
         d="M 0,0 H 64 V 64 H 0 Z"
         id="path1129"
         inkscape:connector-curvature="0" /></clipPath><clipPath
       clipPathUnits="userSpaceOnUse"
       id="clipPath1231"><path
         d="M 0,0 H 64 V 64 H 0 Z"
         id="path1229"
         inkscape:connector-curvature="0" /></clipPath></defs><sodipodi:namedview
     pagecolor="#ffffff"
     bordercolor="#666666"
     borderopacity="1"
     objecttolerance="10"
     gridtolerance="10"
     guidetolerance="10"
     inkscape:pageopacity="0"
     inkscape:pageshadow="2"
     inkscape:window-width="1366"
     inkscape:window-height="705"
     id="namedview817"
     showgrid="false"
     inkscape:zoom="6.2812498"
     inkscape:cx="22.907773"
     inkscape:cy="50.328385"
     inkscape:window-x="-8"
     inkscape:window-y="-8"
     inkscape:window-maximized="1"
     inkscape:current-layer="g823" /><g
     id="g823"
     inkscape:groupmode="layer"
     inkscape:label="brownie.ai.final-_1_"
     transform="matrix(1.3333333,0,0,1.3333333,0,1.8e-6)"><path
       inkscape:connector-curvature="0"
       id="path839"
       style="fill:#af0808;fill-opacity:1;fill-rule:nonzero;stroke:none"
       d="m 63.617002,31.9975 c 0,17.415 -14.156,31.532 -31.617,31.532 -17.461,0 -31.61700025,-14.117 -31.61700025,-31.532 0,-17.41 14.15600025,-31.5269996 31.61700025,-31.5269996 17.461,0 31.617,14.1169996 31.617,31.5269996" /><path
       d="m 32.938,45.754 3.894,1.058 -0.406,2.59 0.406,3.653 h -3.23 l 0.515,-1.641 z"
       style="fill:#020100;fill-opacity:1;fill-rule:nonzero;stroke:#020200;stroke-width:1;stroke-linecap:butt;stroke-linejoin:miter;stroke-miterlimit:10;stroke-dasharray:none;stroke-opacity:1"
       id="path949"
       inkscape:connector-curvature="0" /><path
       inkscape:connector-curvature="0"
       id="path845"
       style="fill:#020000;fill-opacity:1;fill-rule:nonzero;stroke:none"
       d="m 52.266,44.023 c 0,0.165 0.058,0.293 0.125,0.293 0.066,0 0.121,-0.128 0.121,-0.293 0,-0.16 -0.055,-0.293 -0.121,-0.293 -0.067,0 -0.125,0.133 -0.125,0.293" /><path
       d="m 43.371,30.656 2.527,0.211 3.04,0.582 4.308,1.801 c 0.367,0.152 0.692,0.379 0.953,0.664 l 1.149,1.254 0.586,1.988 0.054,2.426 c 0.012,0.113 0.285,2.406 0.301,2.516 l 0.008,0.086 -0.457,1.07 -1.188,0.476 -0.695,-0.402 c -0.269,-0.156 -0.418,-0.441 -0.383,-0.734 l 0.293,-2.313 -0.5,-2.754 -0.875,-1.644 C 52.27,35.461 51.887,35.129 51.414,34.945 l -2.73,-1.062 -4.489,-1.77 c -0.386,-0.187 -0.66,-0.531 -0.73,-0.925 z"
       style="fill:#020000;fill-opacity:1;fill-rule:nonzero;stroke:#000000;stroke-width:0.24975001;stroke-linecap:butt;stroke-linejoin:miter;stroke-miterlimit:10;stroke-dasharray:none;stroke-opacity:1"
       id="path861"
       inkscape:connector-curvature="0" /><path
       d="m 24.367,29.242 -2.324,0.926 -2.969,0.836 -4.722,0.32 c -0.403,0.031 -0.809,-0.027 -1.184,-0.16 L 11.5,30.574 9.941,29.09 8.617,26.988 c -0.07,-0.093 -1.519,-1.98 -1.59,-2.074 l -0.05,-0.07 C 6.922,24.465 6.867,24.086 6.812,23.707 l 0.79,-0.945 0.824,0.047 c 0.316,0.019 0.597,0.203 0.719,0.472 l 0.96,2.16 1.887,2.188 1.633,1.059 c 0.418,0.269 0.93,0.394 1.441,0.343 l 2.95,-0.273 4.867,-0.43 c 0.437,-0.008 0.851,0.172 1.121,0.488 z"
       style="fill:#020000;fill-opacity:1;fill-rule:nonzero;stroke:#020200;stroke-width:0.24975001;stroke-linecap:butt;stroke-linejoin:miter;stroke-miterlimit:10;stroke-dasharray:none;stroke-opacity:1"
       id="path865"
       inkscape:connector-curvature="0" /><path
       d="m 22.703,42.879 4.168,0.851 0.149,2.02 -0.887,3.59 0.609,3.43 -3.383,0.285 -0.148,-2.289 0.434,-4.028 z"
       style="fill:#020100;fill-opacity:1;fill-rule:nonzero;stroke:#020200;stroke-width:1;stroke-linecap:butt;stroke-linejoin:miter;stroke-miterlimit:10;stroke-dasharray:none;stroke-opacity:1"
       id="path953"
       inkscape:connector-curvature="0" /><path
       d="m 44.124062,39.201558 -0.943953,1.684631 -1.227492,1.120752 c -0.801,-0.207 -1.775646,1.061738 -2.154646,1.737738 l -0.791508,0.700646 -1.329492,-0.222216 -2.824741,-2.488 -3.542292,-0.739722 -3.065124,-1.136847 -3.149679,-2.983814 -9.436781,-0.696263 c 0.117,0.512 0.177646,2.462537 0.02165,2.973537 0.23,0.02 0.465,0.032 0.683,-0.023 0.149,-0.035 0.285,0.066 0.289,0.199 0.039,0.988 0.477,1.254 1.192,1.832 0.031,0.024 0.054,0.051 0.082,0.074 l 1.023,0.102 4.867,1.637 5.204,0.836 5.351,2.574 4.379,0.762 4.648,1.144 -0.015,-0.445 c 1.172,0.273 2.308,-0.547 2.293,-1.656 l 1.16,-4.266 z"
       style="fill:#b5743e;fill-opacity:1;fill-rule:nonzero;stroke:#000000;stroke-width:0.24975;stroke-linecap:butt;stroke-linejoin:miter;stroke-miterlimit:10;stroke-dasharray:none;stroke-opacity:1"
       id="path929"
       inkscape:connector-curvature="0"
       sodipodi:nodetypes="cccccccccccccccccccccccccc" /><path
       d="M 53.227,18.598 50.832,17.453 48.395,18.438 46.773,16.879 43.547,15.547 40.734,15.152 35.359,14.09 32.469,13.074 31.473,12.02 28.66,11.734 26.508,10.43 c -1.11,-0.371 -2.336,0.164 -2.723,1.187 l -0.121,2.117 -1.875,3.336 -0.375,2.844 -1.602,0.969 0.626,2.004 -1.043,1.715 -0.461,1.359 -1.411,0.262 -1.214,5.457 -1.286,1.308 v 4.321 c 0.137,-0.032 0.27,-0.063 0.407,-0.086 0.121,-0.024 0.238,0.031 0.277,0.144 0.035,0.098 0.059,0.192 0.082,0.289 l 6.731,1.625 7.597,3.051 c 1.367,0.254 2.735,0.504 4.102,0.754 1.039,0.555 2.078,1.113 3.117,1.668 0.355,0.191 0.711,0.383 1.066,0.574 0.153,0.082 0.305,0.164 0.457,0.246 0.543,0.059 1.086,0.117 1.625,0.18 0.043,-0.723 0.411,-1.106 1.145,-1.742 0.215,-0.18 0.598,-0.215 0.805,0 0.05,0.054 0.097,0.101 0.148,0.152 0.141,-0.258 0.445,-0.387 0.777,-0.234 0.649,0.304 1.008,-0.965 1.145,-1.309 0.148,-0.367 0.617,-0.508 0.949,-0.23 0.024,0.023 0.047,0.043 0.074,0.066 0.274,-0.359 0.657,-0.582 1.18,-0.547 0.371,-0.972 0.738,-1.941 1.105,-2.914 l 3.333,-8.961 2.117,-6.058 1.422,-3.094 z"
       style="fill:#4c3016;fill-opacity:1;fill-rule:nonzero;stroke:#000000;stroke-width:0.24975001;stroke-linecap:butt;stroke-linejoin:miter;stroke-miterlimit:10;stroke-dasharray:none;stroke-opacity:1"
       id="path869"
       inkscape:connector-curvature="0" /><path
       inkscape:connector-curvature="0"
       id="path871"
       style="fill:#60371c;fill-opacity:1;fill-rule:nonzero;stroke:none"
       d="m 44.531,16.301 c -0.019,0.511 -2.847,0.105 -3.957,1.621 -1.062,1.457 0.637,3.07 -0.519,4.766 -0.75,1.097 -1.676,0.738 -2.602,2.003 -0.668,0.903 -0.293,1.231 -0.836,3.528 -0.679,2.894 -1.441,3.086 -1.246,4.668 0.102,0.851 0.399,1.437 0,1.91 -0.43,0.5 -1.148,0.281 -2.082,0.473 -2.262,0.468 -2.219,2.601 -4.062,2.957 -1.586,0.304 -3.434,-0.93 -4.266,-2.098 -0.691,-0.965 -0.316,-1.371 -1.145,-2.574 -0.98,-1.426 -1.718,-1.164 -2.289,-2.289 -0.281,-0.543 -0.261,-1.641 -0.211,-3.813 0.039,-1.641 0.11,-1.672 0,-2.098 -0.425,-1.683 -1.738,-2.003 -1.558,-2.859 0.078,-0.394 0.402,-0.547 3.121,-2 1.562,-0.836 2.344,-1.266 2.394,-1.812 0.059,-0.641 -0.695,-0.856 -0.625,-1.622 0.071,-0.781 0.903,-0.976 0.832,-1.621 -0.07,-0.652 -0.98,-0.824 -0.937,-1.238 0.055,-0.469 1.293,-0.82 2.707,-0.953 2.039,-0.191 3.398,0.172 5.414,0.574 2.785,0.551 2.004,0.219 6.559,1.047 4.5,0.82 5.316,1.152 5.308,1.43" /><path
       d="m 44.531,16.301 c -0.019,0.511 -2.847,0.105 -3.957,1.621 -1.062,1.457 0.637,3.07 -0.519,4.766 -0.75,1.097 -1.676,0.738 -2.602,2.003 -0.668,0.903 -0.293,1.231 -0.836,3.528 -0.679,2.894 -1.441,3.086 -1.246,4.668 0.102,0.851 0.399,1.437 0,1.91 -0.43,0.5 -1.148,0.281 -2.082,0.473 -2.262,0.468 -2.219,2.601 -4.062,2.957 -1.586,0.304 -3.434,-0.93 -4.266,-2.098 -0.691,-0.965 -0.316,-1.371 -1.145,-2.574 -0.98,-1.426 -1.718,-1.164 -2.289,-2.289 -0.281,-0.543 -0.261,-1.641 -0.211,-3.813 0.039,-1.641 0.11,-1.672 0,-2.098 -0.425,-1.683 -1.738,-2.003 -1.558,-2.859 0.078,-0.394 0.402,-0.547 3.121,-2 1.562,-0.836 2.344,-1.266 2.394,-1.812 0.059,-0.641 -0.695,-0.856 -0.625,-1.622 0.071,-0.781 0.903,-0.976 0.832,-1.621 -0.07,-0.652 -0.98,-0.824 -0.937,-1.238 0.055,-0.469 1.293,-0.82 2.707,-0.953 2.039,-0.191 3.398,0.172 5.414,0.574 2.785,0.551 2.004,0.219 6.559,1.047 4.5,0.82 5.316,1.152 5.308,1.43 z"
       style="fill:none;stroke:#000000;stroke-width:0.24975001;stroke-linecap:butt;stroke-linejoin:miter;stroke-miterlimit:10;stroke-dasharray:none;stroke-opacity:1"
       id="path875"
       inkscape:connector-curvature="0" /><path
       inkscape:connector-curvature="0"
       id="path877"
       style="fill:#8e4b25;fill-opacity:1;fill-rule:nonzero;stroke:none"
       d="m 41.629,44.016 c 0.215,-0.184 0.598,-0.219 0.805,0 0.05,0.05 0.097,0.097 0.148,0.144 0.141,-0.254 0.445,-0.383 0.777,-0.226 0.645,0.3 1.004,-0.969 1.145,-1.313 0.148,-0.371 0.617,-0.508 0.949,-0.226 0.027,0.019 0.047,0.043 0.074,0.062 0.293,-0.391 0.719,-0.621 1.309,-0.539 0.828,-2.477 0.953,-6.094 1.961,-9.453 1.797,-5.985 5.832,-11.309 3.539,-12.774 -2.309,-1.476 -4.578,-0.953 -4.578,-0.953 -0.723,0.168 -1.203,0.469 -1.356,0.571 -1.484,0.996 -1.648,2.671 -1.664,2.859 -0.129,1.551 0.907,1.77 0.832,3.148 -0.074,1.426 -1.203,1.684 -2.082,3.43 -0.785,1.566 -0.156,1.91 -0.625,4.863 -0.191,1.215 -0.539,3.399 -1.769,5.719 -1.34,2.531 -2.633,3.152 -2.289,4.098 0.226,0.625 1.054,1.082 2.054,1.344 0.184,-0.239 0.442,-0.473 0.77,-0.754" /><path
       d="m 41.629,44.016 c 0.215,-0.184 0.598,-0.219 0.805,0 0.05,0.05 0.097,0.097 0.148,0.144 0.141,-0.254 0.445,-0.383 0.777,-0.226 0.645,0.3 1.004,-0.969 1.145,-1.313 0.148,-0.371 0.617,-0.508 0.949,-0.226 0.027,0.019 0.047,0.043 0.074,0.062 0.293,-0.391 0.719,-0.621 1.309,-0.539 0.828,-2.477 0.953,-6.094 1.961,-9.453 1.797,-5.985 5.832,-11.309 3.539,-12.774 -2.309,-1.476 -4.578,-0.953 -4.578,-0.953 -0.723,0.168 -1.203,0.469 -1.356,0.571 -1.484,0.996 -1.648,2.671 -1.664,2.859 -0.129,1.551 0.907,1.77 0.832,3.148 -0.074,1.426 -1.203,1.684 -2.082,3.43 -0.785,1.566 -0.156,1.91 -0.625,4.863 -0.191,1.215 -0.539,3.399 -1.769,5.719 -1.34,2.531 -2.633,3.152 -2.289,4.098 0.226,0.625 1.054,1.082 2.054,1.344 0.184,-0.239 0.442,-0.473 0.77,-0.754 z"
       style="fill:none;stroke:#000000;stroke-width:0.24975001;stroke-linecap:butt;stroke-linejoin:miter;stroke-miterlimit:10;stroke-dasharray:none;stroke-opacity:1"
       id="path881"
       inkscape:connector-curvature="0" /><path
       d="m 17.781,34.766 c 0.477,-0.043 1.039,-0.055 1.324,0.293 0.094,0.109 0.141,0.242 0.18,0.375 0.149,0.476 0.195,0.98 0.41,1.437 0.219,0.453 0.668,0.867 1.207,0.863"
       style="fill:none;stroke:#000000;stroke-width:0.24975001;stroke-linecap:butt;stroke-linejoin:miter;stroke-miterlimit:10;stroke-dasharray:none;stroke-opacity:1"
       id="path885"
       inkscape:connector-curvature="0" /><path
       d="m 19.684,31.086 c 0.543,-0.281 1.226,-0.313 1.796,-0.09 0.469,0.184 1.016,0.527 1.426,0.25 0.305,-0.207 0.293,-0.629 0.516,-0.91 0.383,-0.496 1.211,-0.344 1.832,-0.141 0.176,0.059 0.348,0.114 0.523,0.172 0.328,0.106 0.758,0.188 0.965,-0.066 0.215,-0.258 0.012,-0.672 0.227,-0.93 0.093,-0.113 0.246,-0.164 0.394,-0.207 0.5,-0.144 1.028,-0.219 1.551,-0.219"
       style="fill:none;stroke:#000000;stroke-width:0.24975001;stroke-linecap:butt;stroke-linejoin:miter;stroke-miterlimit:10;stroke-dasharray:none;stroke-opacity:1"
       id="path889"
       inkscape:connector-curvature="0" /><path
       d="m 27.648,26.996 c 0.184,0.258 0.387,0.531 0.696,0.649 0.117,0.043 0.25,0.066 0.336,0.152 0.078,0.082 0.09,0.199 0.097,0.305 0.047,0.632 0.055,1.269 0.024,1.906 -0.012,0.238 -0.028,0.484 0.066,0.707 0.266,0.609 1.238,0.762 1.477,1.379"
       style="fill:none;stroke:#000000;stroke-width:0.24975001;stroke-linecap:butt;stroke-linejoin:miter;stroke-miterlimit:10;stroke-dasharray:none;stroke-opacity:1"
       id="path893"
       inkscape:connector-curvature="0" /><path
       d="m 30.578,21.805 c 0.813,0.336 1.715,0.488 2.606,0.437 0.16,-0.008 0.332,-0.019 0.472,0.051 0.211,0.109 0.262,0.359 0.293,0.582 0.141,1 0.281,2.004 0.422,3.004"
       style="fill:none;stroke:#000000;stroke-width:0.24975001;stroke-linecap:butt;stroke-linejoin:miter;stroke-miterlimit:10;stroke-dasharray:none;stroke-opacity:1"
       id="path897"
       inkscape:connector-curvature="0" /><path
       d="m 39.25,34.766 c -0.332,0.57 -0.52,1.211 -0.543,1.855 -0.402,0.074 -0.824,0.18 -1.102,0.453 -0.281,0.27 -0.339,0.766 -0.015,0.996 0.098,0.067 0.219,0.11 0.297,0.196 0.093,0.105 0.097,0.257 0.097,0.394 -0.004,0.426 -0.007,0.852 -0.011,1.281 -0.004,0.075 -0.004,0.153 -0.051,0.219 -0.129,0.176 -0.477,0.078 -0.629,0.246 -0.152,0.172 0.062,0.422 0.078,0.645 0.02,0.277 -0.289,0.496 -0.594,0.515 -0.3,0.016 -0.586,-0.113 -0.859,-0.238 -0.109,0.277 0.066,0.57 0.187,0.84 0.125,0.273 0.168,0.644 -0.101,0.805 0.07,-0.45 -0.274,-0.86 -0.598,-1.203 -0.293,-0.313 -0.679,-0.653 -1.113,-0.563 -0.504,0.105 -0.648,0.691 -0.691,1.164"
       style="fill:none;stroke:#000000;stroke-width:0.24975001;stroke-linecap:butt;stroke-linejoin:miter;stroke-miterlimit:10;stroke-dasharray:none;stroke-opacity:1"
       id="path901"
       inkscape:connector-curvature="0" /><path
       d="m 33.551,20.441 c 0.086,-0.902 0.547,-1.773 1.269,-2.394 0.258,-0.168 0.649,0.027 0.93,-0.109 0.363,-0.176 0.215,-0.668 0.23,-1.047 0.016,-0.446 0.379,-0.864 0.852,-0.981"
       style="fill:none;stroke:#000000;stroke-width:0.24975001;stroke-linecap:butt;stroke-linejoin:miter;stroke-miterlimit:10;stroke-dasharray:none;stroke-opacity:1"
       id="path909"
       inkscape:connector-curvature="0" /><path
       d="m 27.105,13.809 c 0.43,0.511 0.079,1.355 0.563,1.82 0.125,0.117 0.289,0.195 0.422,0.301 0.402,0.316 0.488,0.847 0.543,1.328 0.066,0.558 0.137,1.113 0.203,1.668"
       style="fill:none;stroke:#000000;stroke-width:0.24975001;stroke-linecap:butt;stroke-linejoin:miter;stroke-miterlimit:10;stroke-dasharray:none;stroke-opacity:1"
       id="path913"
       inkscape:connector-curvature="0" /><path
       d="m 22.703,20.633 c 0.258,0.461 0.516,0.922 0.77,1.383 0.074,0.132 0.164,0.277 0.312,0.339 0.258,0.11 0.543,-0.082 0.75,-0.261 0.559,-0.496 1.074,-1.028 1.539,-1.594 0.457,0.035 0.91,0.074 1.364,0.109 0.078,-0.113 0.152,-0.23 0.23,-0.347"
       style="fill:none;stroke:#000000;stroke-width:0.24975001;stroke-linecap:butt;stroke-linejoin:miter;stroke-miterlimit:10;stroke-dasharray:none;stroke-opacity:1"
       id="path917"
       inkscape:connector-curvature="0" /><path
       d="m 48.133,30.66 c -0.094,-1.113 1.605,-1.762 1.703,-2.875 0.047,-0.566 -0.34,-1.097 -0.359,-1.664 -0.012,-0.461 0.218,-0.898 0.25,-1.355 0.027,-0.414 -0.086,-0.891 0.226,-1.192 0.219,-0.215 0.57,-0.246 0.887,-0.265 0.156,-0.411 0.316,-0.821 0.472,-1.231"
       style="fill:none;stroke:#000000;stroke-width:0.24975001;stroke-linecap:butt;stroke-linejoin:miter;stroke-miterlimit:10;stroke-dasharray:none;stroke-opacity:1"
       id="path925"
       inkscape:connector-curvature="0" /><path
       d="m 23.359,39.996 c -0.281,0.203 -0.75,0.387 -0.945,0.106 -0.066,-0.094 -0.078,-0.223 -0.18,-0.286 -0.179,-0.109 -0.386,0.114 -0.425,0.309 -0.043,0.191 -0.071,0.434 -0.274,0.496 -0.066,0.02 -0.137,0.016 -0.203,0.012 -0.301,-0.028 -0.605,-0.051 -0.906,-0.074 -0.129,0.253 -0.258,0.507 -0.387,0.757"
       style="fill:none;stroke:#000000;stroke-width:0.24975001;stroke-linecap:butt;stroke-linejoin:miter;stroke-miterlimit:10;stroke-dasharray:none;stroke-opacity:1"
       id="path933"
       inkscape:connector-curvature="0" /><path
       d="m 32.938,43.176 c 0.312,0.273 0.449,0.703 0.347,1.09 0.488,-0.067 0.957,0.437 0.801,0.867"
       style="fill:none;stroke:#000000;stroke-width:0.24975001;stroke-linecap:butt;stroke-linejoin:miter;stroke-miterlimit:10;stroke-dasharray:none;stroke-opacity:1"
       id="path937"
       inkscape:connector-curvature="0" /><path
       d="m 42.148,47.484 c 0.301,0.082 0.625,0.168 0.922,0.071 0.293,-0.098 0.5,-0.457 0.305,-0.68 0.457,-0.004 0.914,-0.004 1.371,-0.008 0.125,0 0.258,-0.004 0.359,-0.074 0.098,-0.07 0.118,-0.234 0.008,-0.289"
       style="fill:none;stroke:#000000;stroke-width:0.24975001;stroke-linecap:butt;stroke-linejoin:miter;stroke-miterlimit:10;stroke-dasharray:none;stroke-opacity:1"
       id="path941"
       inkscape:connector-curvature="0" /><path
       d="m 39.012,47.023 c 0.238,-0.031 0.476,-0.062 0.718,-0.097 -0.074,-0.231 0.168,-0.496 0.43,-0.465"
       style="fill:none;stroke:#000000;stroke-width:0.24975001;stroke-linecap:butt;stroke-linejoin:miter;stroke-miterlimit:10;stroke-dasharray:none;stroke-opacity:1"
       id="path945"
       inkscape:connector-curvature="0" /><path
       d="m 24.355,51.414 c 0.356,0.363 0.711,0.731 1.071,1.098 0.121,0.125 0.25,0.304 0.148,0.445"
       style="fill:none;stroke:#000000;stroke-width:1;stroke-linecap:butt;stroke-linejoin:miter;stroke-miterlimit:10;stroke-dasharray:none;stroke-opacity:1"
       id="path957"
       inkscape:connector-curvature="0" /><path
       inkscape:connector-curvature="0"
       id="path971"
       style="fill:#0f0a05;fill-opacity:1;fill-rule:nonzero;stroke:none"
       d="m 30.062,22.844 c -0.394,1.726 -1.785,2.922 -3.105,2.668 -1.324,-0.25 -2.078,-1.856 -1.684,-3.582 0.391,-1.727 1.782,-2.922 3.106,-2.668 1.32,0.25 2.074,1.855 1.683,3.582" /><path
       d="m 30.062,22.844 c -0.394,1.726 -1.785,2.922 -3.105,2.668 -1.324,-0.25 -2.078,-1.856 -1.684,-3.582 0.391,-1.727 1.782,-2.922 3.106,-2.668 1.32,0.25 2.074,1.855 1.683,3.582 z"
       style="fill:none;stroke:#000000;stroke-width:1;stroke-linecap:butt;stroke-linejoin:miter;stroke-miterlimit:10;stroke-dasharray:none;stroke-opacity:1"
       id="path975"
       inkscape:connector-curvature="0" /><path
       inkscape:connector-curvature="0"
       id="path977"
       style="fill:#0c0906;fill-opacity:1;fill-rule:nonzero;stroke:none"
       d="m 43.465,24.301 c -0.395,1.726 -1.785,2.922 -3.106,2.668 -1.324,-0.25 -2.078,-1.856 -1.687,-3.582 0.394,-1.727 1.785,-2.922 3.109,-2.672 1.321,0.254 2.074,1.859 1.684,3.586" /><path
       d="m 43.465,24.301 c -0.395,1.726 -1.785,2.922 -3.106,2.668 -1.324,-0.25 -2.078,-1.856 -1.687,-3.582 0.394,-1.727 1.785,-2.922 3.109,-2.672 1.321,0.254 2.074,1.859 1.684,3.586 z"
       style="fill:none;stroke:#020000;stroke-width:1;stroke-linecap:butt;stroke-linejoin:miter;stroke-miterlimit:10;stroke-dasharray:none;stroke-opacity:1"
       id="path981"
       inkscape:connector-curvature="0" /><path
       inkscape:connector-curvature="0"
       id="path983"
       style="fill:#f7f4f2;fill-opacity:1;fill-rule:nonzero;stroke:none"
       d="m 30.066,21.805 c 0,0.586 -0.55,1.062 -1.23,1.062 -0.684,0 -1.234,-0.476 -1.234,-1.062 0,-0.586 0.55,-1.063 1.234,-1.063 0.68,0 1.23,0.477 1.23,1.063" /><path
       d="m 30.066,21.805 c 0,0.586 -0.55,1.062 -1.23,1.062 -0.684,0 -1.234,-0.476 -1.234,-1.062 0,-0.586 0.55,-1.063 1.234,-1.063 0.68,0 1.23,0.477 1.23,1.063 z"
       style="fill:none;stroke:#000000;stroke-width:1;stroke-linecap:butt;stroke-linejoin:miter;stroke-miterlimit:10;stroke-dasharray:none;stroke-opacity:1"
       id="path987"
       inkscape:connector-curvature="0" /><path
       inkscape:connector-curvature="0"
       id="path989"
       style="fill:#f7f4f2;fill-opacity:1;fill-rule:nonzero;stroke:none"
       d="m 43.383,23.141 c 0,0.586 -0.551,1.062 -1.231,1.062 -0.683,0 -1.234,-0.476 -1.234,-1.062 0,-0.586 0.551,-1.063 1.234,-1.063 0.68,0 1.231,0.477 1.231,1.063" /><path
       d="m 43.383,23.141 c 0,0.586 -0.551,1.062 -1.231,1.062 -0.683,0 -1.234,-0.476 -1.234,-1.062 0,-0.586 0.551,-1.063 1.234,-1.063 0.68,0 1.231,0.477 1.231,1.063 z"
       style="fill:none;stroke:#000000;stroke-width:1;stroke-linecap:butt;stroke-linejoin:miter;stroke-miterlimit:10;stroke-dasharray:none;stroke-opacity:1"
       id="path993"
       inkscape:connector-curvature="0" /><path
       d="m 28.102,32.27 2.089,2.347 0.493,0.551 c 0.632,0.715 1.543,0.887 2.382,0.449 l 1.516,-0.793 2.871,-1.5 -4.348,0.356 c -0.3,0.027 -0.597,-0.008 -0.882,-0.098 z"
       style="fill:#f9f9f9;fill-opacity:1;fill-rule:nonzero;stroke:#000000;stroke-width:1;stroke-linecap:butt;stroke-linejoin:miter;stroke-miterlimit:10;stroke-dasharray:none;stroke-opacity:1"
       id="path1009"
       inkscape:connector-curvature="0" /><path
       inkscape:connector-curvature="0"
       id="path1023"
       style="fill:#f40c0c;fill-opacity:1;fill-rule:nonzero;stroke:none"
       d="M 20.266,57.117 20.258,57.09 c -0.168,-0.442 -0.153,-0.934 0.039,-1.363 l 0.426,-0.957 c 0.019,-0.04 0.043,-0.075 0.07,-0.102 l 2.039,-2.023 c 0.066,-0.067 0.16,-0.098 0.254,-0.09 l 2.773,0.242 c 0.012,0 0.028,0 0.039,0 l 0.52,-0.024 c 0.316,-0.011 0.613,-0.175 0.793,-0.445 l 0.211,-0.312 c 0.109,-0.161 0.332,-0.188 0.476,-0.063 0.141,0.117 0.25,0.27 0.317,0.442 l 0.039,0.105 c 0.043,0.109 0.066,0.23 0.066,0.352 v 0.343 c 0,0.2 -0.062,0.399 -0.175,0.563 l -1.79,2.543 c -0.015,0.023 -0.035,0.047 -0.054,0.062 l -0.625,0.528 c -0.321,0.269 -0.692,0.461 -1.094,0.554 l -1.082,0.258 -0.898,0.203 c -0.469,0.11 -0.961,0.043 -1.387,-0.183 l -0.793,-0.426 c -0.07,-0.039 -0.129,-0.102 -0.156,-0.18" /><path
       inkscape:connector-curvature="0"
       id="path1025"
       style="fill:#f40c0c;fill-opacity:1;fill-rule:nonzero;stroke:none"
       d="M 20.266,57.117 20.258,57.09 c -0.168,-0.442 -0.153,-0.934 0.039,-1.363 l 0.426,-0.957 c 0.019,-0.04 0.043,-0.075 0.07,-0.102 l 2.039,-2.023 c 0.066,-0.067 0.16,-0.098 0.254,-0.09 l 2.773,0.242 c 0.012,0 0.028,0 0.039,0 l 0.52,-0.024 c 0.316,-0.011 0.613,-0.175 0.793,-0.445 l 0.211,-0.312 c 0.109,-0.161 0.332,-0.188 0.476,-0.063 0.141,0.117 0.25,0.27 0.317,0.442 l 0.039,0.105 c 0.043,0.109 0.066,0.23 0.066,0.352 v 0.343 c 0,0.2 -0.062,0.399 -0.175,0.563 l -1.79,2.543 c -0.015,0.023 -0.035,0.047 -0.054,0.062 l -0.625,0.528 c -0.321,0.269 -0.692,0.461 -1.094,0.554 l -1.082,0.258 -0.898,0.203 c -0.469,0.11 -0.961,0.043 -1.387,-0.183 l -0.793,-0.426 c -0.07,-0.039 -0.129,-0.102 -0.156,-0.18" /><path
       d="M 20.266,57.117 20.258,57.09 c -0.168,-0.442 -0.153,-0.934 0.039,-1.363 l 0.426,-0.957 c 0.019,-0.04 0.043,-0.075 0.07,-0.102 l 2.039,-2.023 c 0.066,-0.067 0.16,-0.098 0.254,-0.09 l 2.773,0.242 c 0.012,0 0.028,0 0.039,0 l 0.52,-0.024 c 0.316,-0.011 0.613,-0.175 0.793,-0.445 l 0.211,-0.312 c 0.109,-0.161 0.332,-0.188 0.476,-0.063 0.141,0.117 0.25,0.27 0.317,0.442 l 0.039,0.105 c 0.043,0.109 0.066,0.23 0.066,0.352 v 0.343 c 0,0.2 -0.062,0.399 -0.175,0.563 l -1.79,2.543 c -0.015,0.023 -0.035,0.047 -0.054,0.062 l -0.625,0.528 c -0.321,0.269 -0.692,0.461 -1.094,0.554 l -1.082,0.258 -0.898,0.203 c -0.469,0.11 -0.961,0.043 -1.387,-0.183 l -0.793,-0.426 c -0.07,-0.039 -0.129,-0.102 -0.156,-0.18 z"
       style="fill:none;stroke:#020100;stroke-width:0.24975001;stroke-linecap:butt;stroke-linejoin:miter;stroke-miterlimit:10;stroke-dasharray:none;stroke-opacity:1"
       id="path1029"
       inkscape:connector-curvature="0" /><path
       inkscape:connector-curvature="0"
       id="path1031"
       style="fill:#f40c0c;fill-opacity:1;fill-rule:nonzero;stroke:none"
       d="m 25.754,52.582 0.285,0.066 c 0.125,0.028 0.258,0.012 0.375,-0.046 l 0.508,-0.254 0.16,-0.207 c 0.098,-0.129 0.152,-0.289 0.152,-0.457 0,-0.102 -0.066,-0.192 -0.16,-0.219 l -0.297,-0.082 -0.398,-0.067 h -0.352 l -0.5,0.067 0.102,-0.047 c 0.199,0.316 0.285,0.699 0.242,1.074 z" /><path
       inkscape:connector-curvature="0"
       id="path1033"
       style="fill:#f40c0c;fill-opacity:1;fill-rule:nonzero;stroke:none"
       d="m 25.754,52.582 0.285,0.066 c 0.125,0.028 0.258,0.012 0.375,-0.046 l 0.508,-0.254 0.16,-0.207 c 0.098,-0.129 0.152,-0.289 0.152,-0.457 0,-0.102 -0.066,-0.192 -0.16,-0.219 l -0.297,-0.082 -0.398,-0.067 h -0.352 l -0.5,0.067 0.102,-0.047 c 0.199,0.316 0.285,0.699 0.242,1.074 z" /><path
       inkscape:connector-curvature="0"
       id="path1035"
       style="fill:#f40c0c;fill-opacity:1;fill-rule:nonzero;stroke:none"
       d="m 25.754,52.582 0.285,0.066 c 0.125,0.028 0.258,0.012 0.375,-0.046 l 0.508,-0.254 0.16,-0.207 c 0.098,-0.129 0.152,-0.289 0.152,-0.457 0,-0.102 -0.066,-0.192 -0.16,-0.219 l -0.297,-0.082 -0.398,-0.067 h -0.352 l -0.5,0.067 0.102,-0.047 c 0.199,0.316 0.285,0.699 0.242,1.074 z" /><path
       inkscape:connector-curvature="0"
       id="path1037"
       style="fill:#bc2222;fill-opacity:1;fill-rule:nonzero;stroke:none"
       d="m 25.754,52.582 0.285,0.066 c 0.125,0.028 0.258,0.012 0.375,-0.046 l 0.508,-0.254 0.16,-0.207 c 0.098,-0.129 0.152,-0.289 0.152,-0.457 0,-0.102 -0.066,-0.192 -0.16,-0.219 l -0.297,-0.082 -0.398,-0.067 h -0.352 l -0.5,0.067 0.102,-0.047 c 0.199,0.316 0.285,0.699 0.242,1.074 z" /><path
       inkscape:connector-curvature="0"
       id="path1039"
       style="fill:#ffffff;fill-opacity:1;fill-rule:nonzero;stroke:none"
       d="m 26.094,53.973 -0.391,-0.164 -0.535,-0.188 -0.648,-0.199 -0.774,-0.106 -0.629,-0.035 -0.461,0.043 -0.41,-0.074 0.297,-0.414 0.273,-0.047 h 0.868 l 0.535,0.047 0.625,0.125 0.453,0.141 0.547,0.195 0.511,0.285 z" /><path
       inkscape:connector-curvature="0"
       id="path1041"
       style="fill:#110404;fill-opacity:1;fill-rule:nonzero;stroke:none"
       d="M 27.219,56.414 27.102,55.879 C 27.078,55.77 26.949,55.727 26.867,55.805 l -0.562,0.554 c -0.004,0.004 -0.008,0.004 -0.008,0.008 l -0.606,0.688 c -0.011,0.015 -0.027,0.027 -0.043,0.035 l -0.796,0.394 c -0.008,0.008 -0.02,0.012 -0.032,0.016 l -0.965,0.203 -1.085,0.25 c -0.012,0.004 -0.028,0.004 -0.04,0.004 l -1.414,-0.098 c -0.015,0 -0.035,-0.004 -0.046,-0.011 l -0.93,-0.434 c -0.094,-0.043 -0.199,0.027 -0.199,0.133 v 0.43 c 0,0.058 0.039,0.109 0.089,0.132 l 0.688,0.278 c 0.012,0.008 0.023,0.008 0.035,0.008 l 1.055,0.125 c 0.008,0.003 0.019,0.003 0.027,0.003 l 1.25,-0.089 c 0.008,-0.004 0.016,-0.004 0.024,-0.004 l 1.269,-0.289 c 0.004,-0.004 0.012,-0.004 0.016,-0.004 l 1.23,-0.426 c 0.008,-0.004 0.02,-0.012 0.028,-0.016 L 26.57,57.25 c 0.012,-0.012 0.024,-0.02 0.032,-0.027 l 0.586,-0.68 c 0.031,-0.035 0.042,-0.082 0.031,-0.129" /><path
       inkscape:connector-curvature="0"
       id="path1043"
       style="fill:#ffffff;fill-opacity:1;fill-rule:nonzero;stroke:none"
       d="M 27.152,56.754 26.98,56.203 C 26.969,56.16 26.918,56.148 26.887,56.176 l -0.653,0.547 c -0.004,0 -0.004,0.004 -0.004,0.004 l -0.597,0.578 c -0.004,0.004 -0.012,0.007 -0.016,0.011 l -0.801,0.348 c -0.004,0.004 -0.011,0.004 -0.015,0.004 l -0.961,0.199 -1.082,0.238 c -0.004,0 -0.008,0 -0.012,0 l -1.434,-0.031 c -0.007,0 -0.011,0 -0.019,-0.004 L 20.23,57.715 c -0.039,-0.012 -0.078,0.019 -0.078,0.058 l 0.016,0.465 c 0,0.028 0.02,0.051 0.043,0.055 l 0.746,0.219 c 0.004,0 0.008,0 0.012,0 l 1.07,0.066 c 0.004,0 0.004,0 0.008,0 l 1.254,-0.117 c 0.004,0 0.004,0 0.008,0 l 1.265,-0.273 c 0,0 0.004,0 0.004,0 l 1.223,-0.383 c 0.004,0 0.008,-0.004 0.011,-0.004 l 0.719,-0.391 c 0.004,-0.004 0.012,-0.004 0.016,-0.008 l 0.59,-0.586 c 0.015,-0.015 0.019,-0.039 0.015,-0.062" /><path
       inkscape:connector-curvature="0"
       id="path1045"
       style="fill:#0c0000;fill-opacity:1;fill-rule:nonzero;stroke:none"
       d="m 23.219,52.625 -0.168,-0.578 v -0.281 c 0,-0.161 0.082,-0.305 0.215,-0.383 0.328,-0.086 0.672,-0.086 1.004,0 0.187,0.086 0.386,0.144 0.593,0.179 l 0.317,0.055 0.148,0.055 c 0.246,0.094 0.426,0.312 0.477,0.578 l -0.168,0.504 -0.727,0.234 -0.773,-0.086 -0.375,-0.043 z" /><path
       inkscape:connector-curvature="0"
       id="path1047"
       style="fill:#f40c0c;fill-opacity:1;fill-rule:nonzero;stroke:none"
       d="M 23.168,52.52 23,51.941 V 51.66 c 0,-0.16 0.082,-0.305 0.215,-0.383 0.328,-0.086 0.672,-0.086 1.004,0 0.187,0.086 0.386,0.145 0.593,0.18 l 0.317,0.055 0.148,0.054 c 0.246,0.094 0.426,0.313 0.477,0.579 l -0.168,0.503 -0.727,0.235 -0.773,-0.086 -0.375,-0.043 z" /><path
       inkscape:connector-curvature="0"
       id="path1049"
       style="fill:#ffffff;fill-opacity:1;fill-rule:nonzero;stroke:none"
       d="M 20.805,55.922 20.762,55.91 20.719,55.902 20.645,55.855 c 0,0 -0.016,-0.058 -0.028,-0.074 -0.012,-0.019 -0.015,-0.097 -0.004,-0.121 l 0.043,-0.18 0.313,-0.57 c 0.008,0.016 0.027,-0.082 0.078,-0.14 0.074,-0.082 0.183,-0.145 0.195,-0.145 0.024,0 0.063,0.074 0.024,0.195 -0.024,0.086 -0.125,0.223 -0.129,0.242 l -0.086,0.172 -0.028,0.133 -0.046,0.242 -0.024,0.137 c -0.008,0.031 -0.066,0.078 -0.148,0.176" /><path
       inkscape:connector-curvature="0"
       id="path1051"
       style="fill:#1c0909;fill-opacity:1;fill-rule:nonzero;stroke:none"
       d="M 25.902,53.887 25.559,53.742 H 25.555 L 25.066,53.57 24.477,53.387 c 0,0 -0.004,0 -0.004,0 l -0.711,-0.098 -0.571,-0.031 h -0.003 l -0.418,0.039 h -0.008 l -0.344,-0.059 c -0.012,-0.004 -0.02,-0.019 -0.012,-0.031 l 0.254,-0.352 c 0,-0.003 0.004,-0.007 0.012,-0.007 l 0.238,-0.043 h 0.797 l 0.488,0.047 h 0.004 l 0.571,0.109 c 0,0 0.003,0 0.003,0.004 l 0.415,0.125 0.496,0.183 c 0.004,0 0.004,0 0.004,0 l 0.453,0.25 c 0.011,0.008 0.011,0.016 0.007,0.024 l -0.222,0.332 c -0.004,0.008 -0.016,0.012 -0.024,0.008" /><path
       inkscape:connector-curvature="0"
       id="path1053"
       style="fill:#0f0101;fill-opacity:1;fill-rule:nonzero;stroke:none"
       d="m 26.871,55.555 0.117,0.715 c 0.016,0.109 0.153,0.148 0.219,0.058 l 1.25,-1.586 -0.066,-1.289 -0.93,1.399 -0.391,0.445 z" /><path
       inkscape:connector-curvature="0"
       id="path1055"
       style="fill:#ffffff;fill-opacity:1;fill-rule:nonzero;stroke:none"
       d="m 27.082,55.457 0.094,0.574 c 0.015,0.09 0.125,0.117 0.179,0.051 l 1.028,-1.273 -0.051,-1.036 -1.25,1.598 z" /><path
       inkscape:connector-curvature="0"
       id="path1057"
       style="fill:#ffffff;fill-opacity:1;fill-rule:nonzero;stroke:none"
       d="m 25.633,54.637 -0.391,-0.184 -0.527,-0.211 -0.637,-0.222 -0.766,-0.122 -0.617,-0.039 -0.453,0.047 -0.406,-0.078 0.293,-0.465 0.269,-0.058 h 0.856 l 0.527,0.058 0.617,0.137 0.446,0.156 0.539,0.223 0.508,0.32 z" /><path
       inkscape:connector-curvature="0"
       id="path1059"
       style="fill:#1c0909;fill-opacity:1;fill-rule:nonzero;stroke:none"
       d="m 25.371,54.496 -0.34,-0.141 -0.488,-0.167 -0.582,-0.176 H 23.957 L 23.254,53.914 H 23.25 l -0.566,-0.027 -0.418,0.039 c 0,0 0,0 -0.004,-0.004 l -0.344,-0.059 c -0.012,-0.004 -0.02,-0.015 -0.012,-0.023 l 0.25,-0.348 c 0.004,-0.004 0.008,-0.004 0.016,-0.008 l 0.234,-0.043 h 0.793 l 0.485,0.047 0.566,0.11 c 0,0 0,0 0.004,0 l 0.41,0.125 0.492,0.175 c 0.004,0 0.004,0 0.004,0.004 l 0.449,0.243 c 0.012,0.003 0.012,0.015 0.008,0.023 l -0.219,0.32 C 25.391,54.5 25.379,54.5 25.371,54.496" /><path
       inkscape:connector-curvature="0"
       id="path1061"
       style="fill:#ffffff;fill-opacity:1;fill-rule:nonzero;stroke:none"
       d="m 24.855,54.945 -0.371,-0.144 -0.5,-0.168 -0.605,-0.18 -0.731,-0.094 -0.589,-0.031 -0.434,0.039 -0.387,-0.066 0.282,-0.367 0.253,-0.047 h 0.817 l 0.504,0.047 0.586,0.109 0.425,0.125 0.512,0.176 0.485,0.254 z" /><path
       inkscape:connector-curvature="0"
       id="path1063"
       style="fill:#1c0909;fill-opacity:1;fill-rule:nonzero;stroke:none"
       d="m 24.711,54.859 -0.324,-0.117 h -0.004 l -0.461,-0.14 -0.563,-0.149 c 0,0 0,-0.004 -0.004,-0.004 l -0.671,-0.078 -0.539,-0.027 c -0.004,0 -0.004,0 -0.004,0 l -0.399,0.035 H 21.738 L 21.41,54.328 c -0.012,-0.004 -0.019,-0.016 -0.012,-0.023 l 0.239,-0.289 c 0.004,-0.004 0.008,-0.008 0.011,-0.008 l 0.227,-0.035 c 0.004,0 0.004,0 0.004,0 h 0.754 l 0.461,0.035 c 0.004,0 0.004,0 0.004,0.004 l 0.539,0.09 c 0.004,0 0.004,0 0.004,0 l 0.39,0.105 c 0.004,0.004 0.004,0.004 0.004,0.004 l 0.469,0.144 c 0.004,0 0.004,0 0.004,0.004 l 0.43,0.203 c 0.007,0.008 0.011,0.016 0.007,0.02 l -0.211,0.273 c -0.004,0.008 -0.015,0.008 -0.023,0.004" /><path
       inkscape:connector-curvature="0"
       id="path1065"
       style="fill:#f40c0c;fill-opacity:1;fill-rule:nonzero;stroke:none"
       d="m 40.32,57.52 0.008,-0.028 c 0.164,-0.441 0.152,-0.933 -0.039,-1.363 L 39.863,55.172 C 39.844,55.133 39.82,55.098 39.793,55.07 l -2.039,-2.023 c -0.07,-0.067 -0.16,-0.102 -0.254,-0.09 l -2.773,0.242 c -0.016,0 -0.028,0 -0.043,0 L 34.168,53.176 C 33.848,53.164 33.555,53 33.375,52.73 L 33.16,52.418 c -0.109,-0.16 -0.328,-0.191 -0.472,-0.066 -0.141,0.121 -0.25,0.273 -0.317,0.445 l -0.039,0.105 c -0.043,0.11 -0.066,0.231 -0.066,0.352 v 0.344 c 0,0.199 0.062,0.398 0.175,0.562 l 1.786,2.543 c 0.019,0.024 0.039,0.043 0.058,0.063 l 0.625,0.527 c 0.317,0.269 0.692,0.457 1.094,0.555 l 1.078,0.257 0.902,0.204 c 0.469,0.105 0.961,0.039 1.387,-0.188 l 0.793,-0.426 c 0.07,-0.035 0.125,-0.101 0.156,-0.175" /><path
       inkscape:connector-curvature="0"
       id="path1067"
       style="fill:#f40c0c;fill-opacity:1;fill-rule:nonzero;stroke:none"
       d="m 40.32,57.52 0.008,-0.028 c 0.164,-0.441 0.152,-0.933 -0.039,-1.363 L 39.863,55.172 C 39.844,55.133 39.82,55.098 39.793,55.07 l -2.039,-2.023 c -0.07,-0.067 -0.16,-0.102 -0.254,-0.09 l -2.773,0.242 c -0.016,0 -0.028,0 -0.043,0 L 34.168,53.176 C 33.848,53.164 33.555,53 33.375,52.73 L 33.16,52.418 c -0.109,-0.16 -0.328,-0.191 -0.472,-0.066 -0.141,0.121 -0.25,0.273 -0.317,0.445 l -0.039,0.105 c -0.043,0.11 -0.066,0.231 -0.066,0.352 v 0.344 c 0,0.199 0.062,0.398 0.175,0.562 l 1.786,2.543 c 0.019,0.024 0.039,0.043 0.058,0.063 l 0.625,0.527 c 0.317,0.269 0.692,0.457 1.094,0.555 l 1.078,0.257 0.902,0.204 c 0.469,0.105 0.961,0.039 1.387,-0.188 l 0.793,-0.426 c 0.07,-0.035 0.125,-0.101 0.156,-0.175" /><path
       d="m 40.32,57.52 0.008,-0.028 c 0.164,-0.441 0.152,-0.933 -0.039,-1.363 L 39.863,55.172 C 39.844,55.133 39.82,55.098 39.793,55.07 l -2.039,-2.023 c -0.07,-0.067 -0.16,-0.102 -0.254,-0.09 l -2.773,0.242 c -0.016,0 -0.028,0 -0.043,0 L 34.168,53.176 C 33.848,53.164 33.555,53 33.375,52.73 L 33.16,52.418 c -0.109,-0.16 -0.328,-0.191 -0.472,-0.066 -0.141,0.121 -0.25,0.273 -0.317,0.445 l -0.039,0.105 c -0.043,0.11 -0.066,0.231 -0.066,0.352 v 0.344 c 0,0.199 0.062,0.398 0.175,0.562 l 1.786,2.543 c 0.019,0.024 0.039,0.043 0.058,0.063 l 0.625,0.527 c 0.317,0.269 0.692,0.457 1.094,0.555 l 1.078,0.257 0.902,0.204 c 0.469,0.105 0.961,0.039 1.387,-0.188 l 0.793,-0.426 c 0.07,-0.035 0.125,-0.101 0.156,-0.175 z"
       style="fill:none;stroke:#020100;stroke-width:0.24975001;stroke-linecap:butt;stroke-linejoin:miter;stroke-miterlimit:10;stroke-dasharray:none;stroke-opacity:1"
       id="path1071"
       inkscape:connector-curvature="0" /><path
       inkscape:connector-curvature="0"
       id="path1073"
       style="fill:#f40c0c;fill-opacity:1;fill-rule:nonzero;stroke:none"
       d="m 34.832,52.984 -0.285,0.063 c -0.129,0.031 -0.258,0.012 -0.375,-0.043 l -0.508,-0.254 -0.16,-0.207 c -0.102,-0.129 -0.152,-0.289 -0.152,-0.457 0,-0.102 0.062,-0.191 0.16,-0.219 l 0.297,-0.082 0.394,-0.066 h 0.356 l 0.5,0.066 -0.102,-0.047 c -0.199,0.317 -0.289,0.7 -0.242,1.074 z" /><path
       inkscape:connector-curvature="0"
       id="path1075"
       style="fill:#f40c0c;fill-opacity:1;fill-rule:nonzero;stroke:none"
       d="m 34.832,52.984 -0.285,0.063 c -0.129,0.031 -0.258,0.012 -0.375,-0.043 l -0.508,-0.254 -0.16,-0.207 c -0.102,-0.129 -0.152,-0.289 -0.152,-0.457 0,-0.102 0.062,-0.191 0.16,-0.219 l 0.297,-0.082 0.394,-0.066 h 0.356 l 0.5,0.066 -0.102,-0.047 c -0.199,0.317 -0.289,0.7 -0.242,1.074 z" /><path
       inkscape:connector-curvature="0"
       id="path1077"
       style="fill:#f40c0c;fill-opacity:1;fill-rule:nonzero;stroke:none"
       d="m 34.832,52.984 -0.285,0.063 c -0.129,0.031 -0.258,0.012 -0.375,-0.043 l -0.508,-0.254 -0.16,-0.207 c -0.102,-0.129 -0.152,-0.289 -0.152,-0.457 0,-0.102 0.062,-0.191 0.16,-0.219 l 0.297,-0.082 0.394,-0.066 h 0.356 l 0.5,0.066 -0.102,-0.047 c -0.199,0.317 -0.289,0.7 -0.242,1.074 z" /><path
       inkscape:connector-curvature="0"
       id="path1079"
       style="fill:#bc2222;fill-opacity:1;fill-rule:nonzero;stroke:none"
       d="m 34.832,52.984 -0.285,0.063 c -0.129,0.031 -0.258,0.012 -0.375,-0.043 l -0.508,-0.254 -0.16,-0.207 c -0.102,-0.129 -0.152,-0.289 -0.152,-0.457 0,-0.102 0.062,-0.191 0.16,-0.219 l 0.297,-0.082 0.394,-0.066 h 0.356 l 0.5,0.066 -0.102,-0.047 c -0.199,0.317 -0.289,0.7 -0.242,1.074 z" /><path
       inkscape:connector-curvature="0"
       id="path1081"
       style="fill:#ffffff;fill-opacity:1;fill-rule:nonzero;stroke:none"
       d="m 34.492,54.371 0.391,-0.164 0.535,-0.187 0.644,-0.2 0.778,-0.105 0.625,-0.031 0.461,0.043 0.414,-0.075 -0.297,-0.414 -0.273,-0.047 h -0.868 l -0.535,0.047 -0.625,0.125 -0.453,0.141 -0.547,0.195 -0.515,0.281 z" /><path
       inkscape:connector-curvature="0"
       id="path1083"
       style="fill:#110404;fill-opacity:1;fill-rule:nonzero;stroke:none"
       d="m 33.367,56.816 0.113,-0.535 c 0.028,-0.113 0.157,-0.152 0.239,-0.074 l 0.562,0.555 c 0.004,0 0.008,0.004 0.008,0.008 l 0.606,0.687 c 0.011,0.012 0.027,0.023 0.043,0.031 l 0.792,0.399 c 0.012,0.004 0.024,0.008 0.036,0.011 l 0.961,0.207 1.085,0.25 c 0.016,0 0.028,0.004 0.043,0 l 1.415,-0.093 c 0.015,0 0.031,-0.004 0.046,-0.012 l 0.93,-0.434 c 0.09,-0.043 0.199,0.028 0.199,0.133 v 0.426 c 0,0.059 -0.039,0.113 -0.093,0.137 l -0.688,0.277 c -0.008,0.004 -0.023,0.008 -0.035,0.008 l -1.051,0.125 c -0.008,0 -0.019,0.004 -0.027,0 l -1.25,-0.09 h -0.024 l -1.269,-0.293 c -0.008,0 -0.012,0 -0.016,-0.004 l -1.23,-0.426 c -0.008,-0.004 -0.02,-0.007 -0.028,-0.011 l -0.718,-0.45 C 34.004,57.641 33.992,57.633 33.98,57.621 L 33.398,56.945 C 33.367,56.91 33.355,56.859 33.367,56.816" /><path
       inkscape:connector-curvature="0"
       id="path1085"
       style="fill:#ffffff;fill-opacity:1;fill-rule:nonzero;stroke:none"
       d="m 33.434,57.156 0.171,-0.554 c 0.012,-0.04 0.059,-0.055 0.094,-0.028 l 0.653,0.551 c 0.003,0 0.003,0 0.003,0.004 l 0.598,0.574 c 0.004,0.008 0.008,0.012 0.016,0.012 l 0.801,0.351 c 0.003,0.004 0.007,0.004 0.011,0.004 l 0.961,0.2 1.086,0.234 c 0.004,0.004 0.008,0.004 0.012,0.004 l 1.433,-0.031 c 0.008,0 0.012,0 0.016,-0.004 l 1.066,-0.356 c 0.04,-0.015 0.079,0.016 0.079,0.059 l -0.016,0.465 c 0,0.027 -0.02,0.047 -0.043,0.054 l -0.75,0.215 c -0.004,0.004 -0.008,0.004 -0.012,0.004 l -1.066,0.063 c -0.004,0.003 -0.008,0.003 -0.008,0 l -1.254,-0.114 c -0.004,0 -0.004,0 -0.008,0 L 36.012,58.59 c 0,0 -0.004,0 -0.008,0 l -1.219,-0.383 c -0.004,-0.004 -0.008,-0.004 -0.012,-0.004 l -0.718,-0.391 c -0.008,-0.003 -0.012,-0.007 -0.016,-0.011 l -0.59,-0.582 C 33.434,57.203 33.43,57.18 33.434,57.156" /><path
       inkscape:connector-curvature="0"
       id="path1087"
       style="fill:#0c0000;fill-opacity:1;fill-rule:nonzero;stroke:none"
       d="m 37.367,53.027 0.164,-0.578 v -0.281 c 0,-0.16 -0.082,-0.305 -0.215,-0.383 -0.328,-0.086 -0.671,-0.086 -1,0 -0.191,0.082 -0.386,0.145 -0.593,0.18 l -0.317,0.051 -0.148,0.058 c -0.246,0.094 -0.426,0.313 -0.477,0.578 l 0.164,0.504 0.731,0.235 0.773,-0.086 0.375,-0.043 z" /><path
       inkscape:connector-curvature="0"
       id="path1089"
       style="fill:#f40c0c;fill-opacity:1;fill-rule:nonzero;stroke:none"
       d="m 37.418,52.922 0.164,-0.578 v -0.282 c 0,-0.16 -0.082,-0.304 -0.215,-0.382 -0.328,-0.086 -0.672,-0.086 -1,0 -0.191,0.082 -0.387,0.144 -0.594,0.179 l -0.316,0.055 -0.148,0.055 c -0.247,0.093 -0.426,0.312 -0.477,0.574 l 0.164,0.508 0.731,0.234 0.773,-0.086 0.375,-0.043 z" /><path
       inkscape:connector-curvature="0"
       id="path1091"
       style="fill:#ffffff;fill-opacity:1;fill-rule:nonzero;stroke:none"
       d="m 39.781,56.324 0.043,-0.012 0.043,-0.007 0.074,-0.047 c 0,0 0.016,-0.059 0.028,-0.078 0.011,-0.016 0.015,-0.098 0.004,-0.121 L 39.93,55.883 39.617,55.312 c -0.008,0.016 -0.027,-0.082 -0.078,-0.14 -0.074,-0.082 -0.187,-0.145 -0.195,-0.145 -0.024,0 -0.063,0.075 -0.024,0.196 0.024,0.082 0.125,0.218 0.125,0.242 l 0.09,0.172 0.027,0.129 0.043,0.246 0.028,0.133 c 0.004,0.035 0.066,0.078 0.148,0.179" /><path
       inkscape:connector-curvature="0"
       id="path1093"
       style="fill:#1c0909;fill-opacity:1;fill-rule:nonzero;stroke:none"
       d="m 34.684,54.289 0.343,-0.144 0.493,-0.172 0.589,-0.184 c 0,0 0,0 0.004,0 l 0.707,-0.098 c 0,-0.003 0.004,-0.003 0.004,-0.003 l 0.571,-0.028 c 0,0 0,0 0.003,0 l 0.418,0.039 h 0.004 l 0.348,-0.062 c 0.012,0 0.02,-0.016 0.012,-0.028 L 37.926,53.258 C 37.922,53.254 37.918,53.25 37.914,53.25 l -0.238,-0.043 h -0.801 l -0.484,0.043 h -0.004 l -0.571,0.113 c 0,0 -0.004,0 -0.004,0 l -0.414,0.129 -0.496,0.184 c -0.004,0 -0.004,0 -0.004,0 l -0.453,0.25 c -0.011,0.008 -0.011,0.015 -0.007,0.023 l 0.222,0.332 c 0.004,0.008 0.016,0.012 0.024,0.008" /><path
       inkscape:connector-curvature="0"
       id="path1095"
       style="fill:#0f0101;fill-opacity:1;fill-rule:nonzero;stroke:none"
       d="m 33.715,55.957 -0.117,0.715 c -0.02,0.109 -0.153,0.144 -0.219,0.058 l -1.25,-1.585 0.066,-1.29 0.93,1.399 0.391,0.445 z" /><path
       inkscape:connector-curvature="0"
       id="path1097"
       style="fill:#ffffff;fill-opacity:1;fill-rule:nonzero;stroke:none"
       d="m 33.504,55.859 -0.098,0.575 c -0.011,0.086 -0.121,0.117 -0.179,0.046 l -1.024,-1.269 0.051,-1.035 1.25,1.597 z" /><path
       inkscape:connector-curvature="0"
       id="path1099"
       style="fill:#ffffff;fill-opacity:1;fill-rule:nonzero;stroke:none"
       d="m 34.953,55.039 0.391,-0.187 0.527,-0.211 0.633,-0.223 0.769,-0.117 0.618,-0.039 0.453,0.047 0.406,-0.082 -0.293,-0.465 -0.269,-0.055 h -0.856 l -0.527,0.055 -0.617,0.14 -0.45,0.157 -0.535,0.222 -0.508,0.317 z" /><path
       inkscape:connector-curvature="0"
       id="path1101"
       style="fill:#1c0909;fill-opacity:1;fill-rule:nonzero;stroke:none"
       d="m 35.215,54.898 0.34,-0.14 0.488,-0.168 0.582,-0.176 c 0.004,0 0.004,0 0.004,0 l 0.703,-0.098 h 0.004 l 0.562,-0.027 h 0.004 l 0.414,0.035 c 0.004,0 0.004,0 0.008,0 l 0.344,-0.058 c 0.012,-0.004 0.02,-0.016 0.012,-0.028 L 38.43,53.895 C 38.426,53.891 38.422,53.887 38.414,53.887 L 38.18,53.844 h -0.793 l -0.485,0.043 c 0,0 0,0 0,0.004 L 36.336,54 c 0,0 0,0 -0.004,0 l -0.41,0.125 -0.492,0.176 c -0.004,0 -0.004,0 -0.004,0 l -0.449,0.246 c -0.012,0.004 -0.012,0.015 -0.008,0.023 l 0.219,0.321 c 0.003,0.007 0.019,0.011 0.027,0.007" /><path
       inkscape:connector-curvature="0"
       id="path1103"
       style="fill:#ffffff;fill-opacity:1;fill-rule:nonzero;stroke:none"
       d="m 35.73,55.348 0.368,-0.145 0.504,-0.168 0.605,-0.18 0.731,-0.097 0.585,-0.028 0.438,0.04 0.387,-0.067 -0.282,-0.371 -0.257,-0.043 h -0.813 l -0.504,0.043 -0.59,0.113 -0.425,0.125 -0.512,0.176 -0.481,0.25 z" /><path
       inkscape:connector-curvature="0"
       id="path1105"
       style="fill:#1c0909;fill-opacity:1;fill-rule:nonzero;stroke:none"
       d="m 35.875,55.262 0.324,-0.117 h 0.004 L 36.664,55 37.223,54.852 c 0.004,0 0.004,0 0.004,0 l 0.671,-0.079 h 0.004 l 0.539,-0.027 h 0.004 l 0.399,0.031 h 0.004 l 0.328,-0.047 c 0.012,-0.003 0.019,-0.015 0.012,-0.023 L 38.949,54.418 C 38.945,54.414 38.941,54.41 38.938,54.41 l -0.227,-0.035 c -0.004,0 -0.004,0 -0.004,0 h -0.754 l -0.465,0.035 -0.543,0.094 -0.394,0.105 -0.469,0.149 c -0.004,0 -0.004,0 -0.004,0 l -0.43,0.207 c -0.011,0.004 -0.011,0.015 -0.007,0.019 l 0.211,0.27 c 0.003,0.008 0.015,0.012 0.023,0.008" /><path
       inkscape:connector-curvature="0"
       id="path1111"
       style="fill:#ffffff;fill-opacity:1;fill-rule:nonzero;stroke:none"
       d="m 34.785,14.191 0.403,-3.125 z" /><path
       inkscape:connector-curvature="0"
       id="path1117"
       style="fill:#ffffff;fill-opacity:1;fill-rule:nonzero;stroke:none"
       d="m 44.738,16.18 0.614,-3.102 z" /><g
       id="g2299"
       transform="translate(-0.28511101,0.41791)"><path
         sodipodi:nodetypes="ccccccccccc"
         inkscape:connector-curvature="0"
         d="m 44.873403,15.76209 c -0.066,0.367 -2.352,0.218 -5.106,-0.328 -2.75,-0.547 -4.925,-1.29 -4.859,-1.653 0.09053,-0.852697 0.181065,-1.705393 0.271597,-2.55809 -1.560913,-0.593885 -3.355617,-1.8624041 -3.145,-3.246 0.27,-1.383 2.102,-2.165 4.121,-1.75 1.117541,-2.6826687 3.980083,-3.6632453 5.946,-3.371 2.949,0.508 5.062,2.847 4.718,5.211 1.628786,0.6214341 3.570737,1.935667 3.36,3.395 -0.278,1.426 -2.235,2.23 -4.367,1.785 -0.313199,0.838363 -0.626398,1.676727 -0.939597,2.51509 z"
         style="fill:#ffffff;fill-opacity:1;stroke:#000000;stroke-width:0.24975;stroke-linecap:butt;stroke-linejoin:miter;stroke-miterlimit:10;stroke-dasharray:none;stroke-opacity:1"
         id="path1205" /><path
         inkscape:connector-curvature="0"
         id="path1209"
         style="fill:none;fill-opacity:1;fill-rule:nonzero;stroke:#000000;stroke-width:0.25;stroke-linecap:butt;stroke-linejoin:miter;stroke-miterlimit:10;stroke-dasharray:none;stroke-opacity:1"
         d="m 40.066,6.473 c 0,0 0.789,1.156 0.602,2.382 -0.184,1.227 -1.258,2.051 -1.258,2.051" /><path
         inkscape:connector-curvature="0"
         id="path1213"
         style="fill:none;fill-opacity:1;fill-rule:nonzero;stroke:#000000;stroke-width:0.25;stroke-linecap:butt;stroke-linejoin:miter;stroke-miterlimit:10;stroke-dasharray:none;stroke-opacity:1"
         d="m 42.574,7.559 c 0,0 0.68,0.996 0.524,2.054 -0.141,1.059 -1.067,1.782 -1.067,1.782" /><path
         inkscape:connector-curvature="0"
         id="path1217"
         style="fill:none;fill-opacity:1;fill-rule:nonzero;stroke:#000000;stroke-width:0.25;stroke-linecap:butt;stroke-linejoin:miter;stroke-miterlimit:10;stroke-dasharray:none;stroke-opacity:1"
         d="m 44.906,9.133 c 0,0 0.426,0.777 0.211,1.535 -0.215,0.758 -0.98,1.227 -0.98,1.227" /><path
         inkscape:connector-curvature="0"
         id="path1221"
         style="fill:none;fill-opacity:1;fill-rule:nonzero;stroke:#000000;stroke-width:0.25;stroke-linecap:butt;stroke-linejoin:miter;stroke-miterlimit:10;stroke-dasharray:none;stroke-opacity:1"
         d="m 38.043,7.605 c 0,0 0.422,0.778 0.211,1.536 -0.215,0.757 -0.981,1.226 -0.981,1.226" /></g><path
       inkscape:connector-curvature="0"
       id="path1235"
       style="fill:#ffffff;fill-opacity:1;fill-rule:nonzero;stroke:none"
       d="m 55.992,39.652 -0.168,0.075 c -0.008,0 -0.012,0.003 -0.019,0.007 l -0.516,0.305 c -0.051,0.027 -0.113,0.035 -0.168,0.016 l -0.723,-0.243 c -0.07,-0.023 -0.113,-0.078 -0.117,-0.144 L 54.262,39.402 C 54.258,39.328 54.195,39.266 54.109,39.254 L 53.59,39.172 c -0.039,-0.004 -0.078,0 -0.113,0.012 l -0.446,0.183 C 53,39.383 52.973,39.398 52.949,39.426 l -0.203,0.25 c -0.039,0.047 -0.051,0.113 -0.023,0.168 l 0.199,0.441 c 0.004,0.012 0.008,0.02 0.016,0.027 l -0.059,0.071 -0.098,0.121 C 52.719,40.48 52.648,40.488 52.594,40.523 L 52.02,40.91 c -0.016,0.008 -0.032,0.02 -0.043,0.035 l -0.317,0.379 c -0.012,0.02 -0.023,0.043 -0.031,0.067 l -0.238,0.949 c -0.008,0.027 -0.024,0.051 -0.043,0.074 l -0.598,0.629 c -0.031,0.031 -0.047,0.07 -0.047,0.109 l -0.012,0.286 c -0.003,0.082 0.059,0.152 0.145,0.167 l 0.492,0.09 c 0.055,0.008 0.11,-0.004 0.152,-0.031 l 0.266,-0.18 c 0.152,-0.097 0.352,0.032 0.285,0.192 l -0.176,0.461 c -0.007,0.011 -0.011,0.023 -0.011,0.035 l -0.051,0.394 c -0.004,0.02 -0.008,0.036 -0.012,0.051 l -0.324,0.684 c -0.004,0.011 -0.008,0.023 -0.008,0.035 l -0.211,0.937 c -0.008,0.032 -0.008,0.063 0.004,0.094 l 0.09,0.215 c 0.027,0.055 0.082,0.098 0.152,0.102 l 0.332,0.035 c 0.086,0.008 0.168,-0.035 0.2,-0.106 l 0.41,-0.707 0.168,-0.234 c 0.039,0.055 0.199,-0.363 0.191,-0.348 l -0.281,0.738 -0.359,0.645 c -0.028,0.047 -0.028,0.098 -0.004,0.145 l 0.113,0.226 c 0.023,0.047 0.07,0.082 0.129,0.094 l 0.234,0.043 c 0.039,0.008 0.078,0.008 0.117,-0.008 l 0.481,-0.191 c 0.047,-0.02 0.086,-0.055 0.105,-0.098 l 0.817,-1.75 -0.614,1.789 c -0.019,0.051 -0.007,0.109 0.024,0.148 l 0.152,0.196 c 0.047,0.054 0.129,0.082 0.207,0.058 l 0.371,-0.101 c 0.032,-0.012 0.063,-0.028 0.086,-0.051 l 0.317,-0.312 c 0.019,-0.016 0.031,-0.036 0.039,-0.055 l 0.461,-1.051 -0.016,-0.328 c -0.004,0.008 0.031,0.211 0.031,0.211 l -0.117,0.84 c -0.055,0.16 0.141,0.281 0.289,0.179 l 0.238,-0.16 c 0.02,-0.011 0.032,-0.023 0.047,-0.039 l 0.621,-0.82 c 0.012,-0.016 0.02,-0.031 0.028,-0.051 l 0.679,-2.059 c 0.008,-0.027 0.008,-0.054 0.004,-0.082 l -0.105,-1.863 c -0.02,-0.078 0.152,-0.351 -0.016,-0.16 l -0.015,-0.301 0.14,0.242 c 0.047,-0.007 -0.136,-0.359 -0.105,-0.394 L 56.875,40.75 c 0.055,-0.062 0.059,-0.148 0.012,-0.207 L 56.219,39.707 C 56.168,39.641 56.07,39.621 55.992,39.652" /><path
       d="m 55.992,39.652 -0.168,0.075 c -0.008,0 -0.012,0.003 -0.019,0.007 l -0.516,0.305 c -0.051,0.027 -0.113,0.035 -0.168,0.016 l -0.723,-0.243 c -0.07,-0.023 -0.113,-0.078 -0.117,-0.144 L 54.262,39.402 C 54.258,39.328 54.195,39.266 54.109,39.254 L 53.59,39.172 c -0.039,-0.004 -0.078,0 -0.113,0.012 l -0.446,0.183 C 53,39.383 52.973,39.398 52.949,39.426 l -0.203,0.25 c -0.039,0.047 -0.051,0.113 -0.023,0.168 l 0.199,0.441 c 0.004,0.012 0.008,0.02 0.016,0.027 l -0.059,0.071 -0.098,0.121 C 52.719,40.48 52.648,40.488 52.594,40.523 L 52.02,40.91 c -0.016,0.008 -0.032,0.02 -0.043,0.035 l -0.317,0.379 c -0.012,0.02 -0.023,0.043 -0.031,0.067 l -0.238,0.949 c -0.008,0.027 -0.024,0.051 -0.043,0.074 l -0.598,0.629 c -0.031,0.031 -0.047,0.07 -0.047,0.109 l -0.012,0.286 c -0.003,0.082 0.059,0.152 0.145,0.167 l 0.492,0.09 c 0.055,0.008 0.11,-0.004 0.152,-0.031 l 0.266,-0.18 c 0.152,-0.097 0.352,0.032 0.285,0.192 l -0.176,0.461 c -0.007,0.011 -0.011,0.023 -0.011,0.035 l -0.051,0.394 c -0.004,0.02 -0.008,0.036 -0.012,0.051 l -0.324,0.684 c -0.004,0.011 -0.008,0.023 -0.008,0.035 l -0.211,0.937 c -0.008,0.032 -0.008,0.063 0.004,0.094 l 0.09,0.215 c 0.027,0.055 0.082,0.098 0.152,0.102 l 0.332,0.035 c 0.086,0.008 0.168,-0.035 0.2,-0.106 l 0.41,-0.707 0.168,-0.234 c 0.039,0.055 0.199,-0.363 0.191,-0.348 l -0.281,0.738 -0.359,0.645 c -0.028,0.047 -0.028,0.098 -0.004,0.145 l 0.113,0.226 c 0.023,0.047 0.07,0.082 0.129,0.094 l 0.234,0.043 c 0.039,0.008 0.078,0.008 0.117,-0.008 l 0.481,-0.191 c 0.047,-0.02 0.086,-0.055 0.105,-0.098 l 0.817,-1.75 -0.614,1.789 c -0.019,0.051 -0.007,0.109 0.024,0.148 l 0.152,0.196 c 0.047,0.054 0.129,0.082 0.207,0.058 l 0.371,-0.101 c 0.032,-0.012 0.063,-0.028 0.086,-0.051 l 0.317,-0.312 c 0.019,-0.016 0.031,-0.036 0.039,-0.055 l 0.461,-1.051 -0.016,-0.328 c -0.004,0.008 0.031,0.211 0.031,0.211 l -0.117,0.84 c -0.055,0.16 0.141,0.281 0.289,0.179 l 0.238,-0.16 c 0.02,-0.011 0.032,-0.023 0.047,-0.039 l 0.621,-0.82 c 0.012,-0.016 0.02,-0.031 0.028,-0.051 l 0.679,-2.059 c 0.008,-0.027 0.008,-0.054 0.004,-0.082 l -0.105,-1.863 c -0.02,-0.078 0.152,-0.351 -0.016,-0.16 l -0.015,-0.301 0.14,0.242 c 0.047,-0.007 -0.136,-0.359 -0.105,-0.394 L 56.875,40.75 c 0.055,-0.062 0.059,-0.148 0.012,-0.207 L 56.219,39.707 C 56.168,39.641 56.07,39.621 55.992,39.652 Z"
       style="fill:none;stroke:#020000;stroke-width:0.24975001;stroke-linecap:butt;stroke-linejoin:miter;stroke-miterlimit:10;stroke-dasharray:none;stroke-opacity:1"
       id="path1239"
       inkscape:connector-curvature="0" /><path
       inkscape:connector-curvature="0"
       id="path1241"
       style="fill:#ffffff;fill-opacity:1;fill-rule:nonzero;stroke:none"
       d="M 8.348,26.832 8.457,26.699 C 8.465,26.691 8.469,26.684 8.473,26.68 l 0.304,-0.485 c 0.032,-0.047 0.086,-0.082 0.145,-0.086 l 0.766,-0.086 c 0.07,-0.007 0.136,0.024 0.175,0.079 l 0.149,0.23 c 0.043,0.063 0.129,0.094 0.207,0.07 l 0.504,-0.148 c 0.039,-0.012 0.07,-0.031 0.093,-0.059 l 0.309,-0.351 c 0.02,-0.024 0.035,-0.051 0.039,-0.082 l 0.059,-0.305 c 0.011,-0.062 -0.012,-0.121 -0.063,-0.16 l -0.398,-0.313 c -0.008,-0.007 -0.02,-0.011 -0.028,-0.019 l -0.406,-0.207 0.449,-0.028 c 0.067,-0.003 0.129,-0.039 0.161,-0.097 l 0.316,-0.578 c 0.012,-0.016 0.016,-0.032 0.019,-0.051 l 0.094,-0.469 c 0.004,-0.023 0,-0.047 -0.004,-0.074 L 11.105,22.52 c -0.007,-0.032 -0.007,-0.059 0,-0.09 l 0.215,-0.809 c 0.012,-0.039 0.008,-0.078 -0.011,-0.117 L 11.176,21.25 c -0.035,-0.074 -0.125,-0.113 -0.211,-0.09 l -0.485,0.125 c -0.05,0.016 -0.093,0.047 -0.121,0.094 l -0.144,0.266 c -0.086,0.152 -0.328,0.121 -0.352,-0.047 l -0.07,-0.485 c 0,-0.015 -0.004,-0.027 -0.008,-0.039 L 9.629,20.703 C 9.625,20.688 9.621,20.672 9.621,20.656 L 9.562,19.91 c 0,-0.012 -0.003,-0.023 -0.003,-0.035 L 9.277,18.953 C 9.27,18.922 9.25,18.895 9.227,18.875 L 9.039,18.719 C 8.988,18.68 8.918,18.668 8.852,18.691 l -0.313,0.106 c -0.078,0.031 -0.129,0.101 -0.125,0.18 l 0.148,2.347 -0.3,-0.699 C 8.258,20.613 8.254,20.598 8.254,20.586 v -1.637 c 0,-0.054 -0.027,-0.101 -0.07,-0.133 L 7.973,18.664 C 7.926,18.629 7.867,18.621 7.812,18.633 L 7.578,18.691 C 7.543,18.699 7.504,18.719 7.48,18.75 L 7.148,19.121 C 7.117,19.156 7.098,19.203 7.102,19.25 L 7.301,21.324 6.902,19.301 C 6.891,19.246 6.855,19.199 6.805,19.176 L 6.574,19.07 C 6.504,19.039 6.418,19.051 6.363,19.102 L 6.082,19.348 C 6.059,19.371 6.039,19.398 6.031,19.43 L 5.902,19.84 C 5.895,19.859 5.895,19.883 5.895,19.906 L 6.082,21.699 5.934,21.355 C 5.93,21.344 5.93,21.332 5.926,21.32 L 5.742,20.348 C 5.711,20.184 5.477,20.156 5.395,20.305 l -0.133,0.246 c -0.012,0.015 -0.016,0.035 -0.02,0.054 l -0.144,0.989 c -0.004,0.019 -0.004,0.039 0,0.054 l 0.422,2.118 c 0.003,0.027 0.015,0.054 0.035,0.074 l 1.297,1.512 c 0.054,0.058 0.144,0.078 0.222,0.043 L 7.906,25.02 7.238,25.492 c -0.039,0.024 -0.066,0.063 -0.074,0.102 l -0.148,0.629 c -0.02,0.078 0.019,0.156 0.093,0.191 l 1.008,0.465 c 0.078,0.035 0.176,0.016 0.231,-0.047" /><path
       d="M 8.348,26.832 8.457,26.699 C 8.465,26.691 8.469,26.684 8.473,26.68 l 0.304,-0.485 c 0.032,-0.047 0.086,-0.082 0.145,-0.086 l 0.766,-0.086 c 0.07,-0.007 0.136,0.024 0.175,0.079 l 0.149,0.23 c 0.043,0.063 0.129,0.094 0.207,0.07 l 0.504,-0.148 c 0.039,-0.012 0.07,-0.031 0.093,-0.059 l 0.309,-0.351 c 0.02,-0.024 0.035,-0.051 0.039,-0.082 l 0.059,-0.305 c 0.011,-0.062 -0.012,-0.121 -0.063,-0.16 l -0.398,-0.313 c -0.008,-0.007 -0.02,-0.011 -0.028,-0.019 l -0.406,-0.207 0.449,-0.028 c 0.067,-0.003 0.129,-0.039 0.161,-0.097 l 0.316,-0.578 c 0.012,-0.016 0.016,-0.032 0.019,-0.051 l 0.094,-0.469 c 0.004,-0.023 0,-0.047 -0.004,-0.074 L 11.105,22.52 c -0.007,-0.032 -0.007,-0.059 0,-0.09 l 0.215,-0.809 c 0.012,-0.039 0.008,-0.078 -0.011,-0.117 L 11.176,21.25 c -0.035,-0.074 -0.125,-0.113 -0.211,-0.09 l -0.485,0.125 c -0.05,0.016 -0.093,0.047 -0.121,0.094 l -0.144,0.266 c -0.086,0.152 -0.328,0.121 -0.352,-0.047 l -0.07,-0.485 c 0,-0.015 -0.004,-0.027 -0.008,-0.039 L 9.629,20.703 C 9.625,20.688 9.621,20.672 9.621,20.656 L 9.562,19.91 c 0,-0.012 -0.003,-0.023 -0.003,-0.035 L 9.277,18.953 C 9.27,18.922 9.25,18.895 9.227,18.875 L 9.039,18.719 C 8.988,18.68 8.918,18.668 8.852,18.691 l -0.313,0.106 c -0.078,0.031 -0.129,0.101 -0.125,0.18 l 0.148,2.347 -0.3,-0.699 C 8.258,20.613 8.254,20.598 8.254,20.586 v -1.637 c 0,-0.054 -0.027,-0.101 -0.07,-0.133 L 7.973,18.664 C 7.926,18.629 7.867,18.621 7.812,18.633 L 7.578,18.691 C 7.543,18.699 7.504,18.719 7.48,18.75 L 7.148,19.121 C 7.117,19.156 7.098,19.203 7.102,19.25 L 7.301,21.324 6.902,19.301 C 6.891,19.246 6.855,19.199 6.805,19.176 L 6.574,19.07 C 6.504,19.039 6.418,19.051 6.363,19.102 L 6.082,19.348 C 6.059,19.371 6.039,19.398 6.031,19.43 L 5.902,19.84 C 5.895,19.859 5.895,19.883 5.895,19.906 L 6.082,21.699 5.934,21.355 C 5.93,21.344 5.93,21.332 5.926,21.32 L 5.742,20.348 C 5.711,20.184 5.477,20.156 5.395,20.305 l -0.133,0.246 c -0.012,0.015 -0.016,0.035 -0.02,0.054 l -0.144,0.989 c -0.004,0.019 -0.004,0.039 0,0.054 l 0.422,2.118 c 0.003,0.027 0.015,0.054 0.035,0.074 l 1.297,1.512 c 0.054,0.058 0.144,0.078 0.222,0.043 L 7.906,25.02 7.238,25.492 c -0.039,0.024 -0.066,0.063 -0.074,0.102 l -0.148,0.629 c -0.02,0.078 0.019,0.156 0.093,0.191 l 1.008,0.465 c 0.078,0.035 0.176,0.016 0.231,-0.047 z"
       style="fill:none;stroke:#050000;stroke-width:0.24975001;stroke-linecap:butt;stroke-linejoin:miter;stroke-miterlimit:10;stroke-dasharray:none;stroke-opacity:1"
       id="path1245"
       inkscape:connector-curvature="0" /><path
       d="m 9.914,20.023 0.664,0.641 -3.051,4.125 -0.992,-0.594 z"
       style="fill:#f90808;fill-opacity:1;fill-rule:nonzero;stroke:#050000;stroke-width:0.24975001;stroke-linecap:butt;stroke-linejoin:miter;stroke-miterlimit:10;stroke-dasharray:none;stroke-opacity:1"
       id="path1249"
       inkscape:connector-curvature="0" /><path
       inkscape:connector-curvature="0"
       id="path1251"
       style="fill:#ed2626;fill-opacity:1;fill-rule:nonzero;stroke:none"
       d="m 7.855,24.484 -0.293,0.77 C 7.492,25.438 7.387,25.609 7.25,25.762 L 6.156,26.977 4.98,28.254 C 4.812,28.434 4.551,28.535 4.277,28.527 3.867,28.516 3.48,28.371 3.199,28.129 3.062,27.617 3.168,27.082 3.496,26.633 L 3.73,26.316 4.547,25.141 c 0.027,-0.032 0.055,-0.067 0.082,-0.098 l 0.848,-0.887 c 0.05,-0.051 0.109,-0.097 0.171,-0.14 l 0.368,-0.235 c 0.226,-0.144 0.515,-0.199 0.793,-0.152 0.523,0.09 0.933,0.426 1.046,0.855" /><path
       d="m 7.855,24.484 -0.293,0.77 C 7.492,25.438 7.387,25.609 7.25,25.762 L 6.156,26.977 4.98,28.254 C 4.812,28.434 4.551,28.535 4.277,28.527 3.867,28.516 3.48,28.371 3.199,28.129 3.062,27.617 3.168,27.082 3.496,26.633 L 3.73,26.316 4.547,25.141 c 0.027,-0.032 0.055,-0.067 0.082,-0.098 l 0.848,-0.887 c 0.05,-0.051 0.109,-0.097 0.171,-0.14 l 0.368,-0.235 c 0.226,-0.144 0.515,-0.199 0.793,-0.152 0.523,0.09 0.933,0.426 1.046,0.855 z"
       style="fill:none;stroke:#000000;stroke-width:0.24975001;stroke-linecap:butt;stroke-linejoin:miter;stroke-miterlimit:10;stroke-dasharray:none;stroke-opacity:1"
       id="path1255"
       inkscape:connector-curvature="0" /><path
       inkscape:connector-curvature="0"
       id="path1257"
       style="fill:#020000;fill-opacity:1;fill-rule:nonzero;stroke:none"
       d="m 10.332,20.43 2.59,-2.43 2.832,-1.367 1.137,-0.875 0.32,-0.992 -0.336,-1.266 0.719,-0.488 0.414,1.562 -0.102,1.414 -0.793,1.012 -4.011,2.074 -0.899,0.61 z" /><path
       inkscape:connector-curvature="0"
       id="path1259"
       style="fill:#000000;fill-opacity:1;fill-rule:nonzero;stroke:none;stroke-width:0.24975001;stroke-miterlimit:10;stroke-dasharray:none"
       d="m 17.594,13.012 -1.028,0.722 -0.378,1.578 -1.036,1.297 -0.773,0.676 -3.969,3.438 -0.562,-0.516 2.367,-2.477 2.226,-1.609 1.121,-1.359 0.188,-1.098 -0.324,-0.824 z" /><path
       inkscape:connector-curvature="0"
       id="path1261"
       style="fill:#020000;fill-opacity:1;fill-rule:nonzero;stroke:none"
       d="m 15.504,12.824 0.223,0.844 -1.028,0.723 -0.957,0.797 -0.797,1.589 -0.347,0.883 -0.774,0.809 -1.262,1.32 -0.714,0.414 0.922,-3.023 1.187,-0.535 0.863,-1.727 1.133,-1.141 z" /><path
       inkscape:connector-curvature="0"
       id="path1263"
       style="fill:#020000;fill-opacity:1;fill-rule:nonzero;stroke:none"
       d="m 15.313,13.038251 -1.723,0.32 -1.234,0.937 -0.258,0.977 -0.141,1.523 -1.32,0.809 0.289,-1.902 0.504,-1.5 0.746,-0.981 0.84,-0.644 1.465,-0.274 1.113,-0.203 0.801,0.426 1.199,0.485749 z"
       sodipodi:nodetypes="ccccccccccccccc" /><path
       inkscape:connector-curvature="0"
       id="path1265"
       style="fill:#f90808;fill-opacity:1;fill-rule:nonzero;stroke:none"
       d="M 10.066,20.586 C 9.711,20.34 9.586,19.984 9.781,19.785 c 0.196,-0.195 0.641,-0.16 0.992,0.082 0.352,0.242 0.481,0.602 0.286,0.797 -0.196,0.199 -0.641,0.164 -0.993,-0.078" /><path
       d="M 10.066,20.586 C 9.711,20.34 9.586,19.984 9.781,19.785 c 0.196,-0.195 0.641,-0.16 0.992,0.082 0.352,0.242 0.481,0.602 0.286,0.797 -0.196,0.199 -0.641,0.164 -0.993,-0.078 z"
       style="fill:none;stroke:#020000;stroke-width:1;stroke-linecap:butt;stroke-linejoin:miter;stroke-miterlimit:10;stroke-dasharray:none;stroke-opacity:1"
       id="path1269"
       inkscape:connector-curvature="0" /><path
       inkscape:connector-curvature="0"
       id="path1271"
       style="fill:#020000;fill-opacity:1;fill-rule:nonzero;stroke:none"
       d="m 52.727,43.57 c -0.059,0.153 -0.055,0.293 0.007,0.313 0.067,0.023 0.164,-0.086 0.223,-0.238 0.059,-0.149 0.055,-0.293 -0.008,-0.313 -0.062,-0.02 -0.16,0.086 -0.222,0.238" /><path
       inkscape:connector-curvature="0"
       id="path1273"
       style="fill:#020000;fill-opacity:1;fill-rule:nonzero;stroke:none"
       d="m 54.996,44.406 c -0.051,0.156 -0.039,0.297 0.024,0.313 0.066,0.019 0.16,-0.09 0.207,-0.246 0.054,-0.157 0.043,-0.293 -0.024,-0.313 -0.062,-0.019 -0.156,0.094 -0.207,0.246" /><path
       inkscape:connector-curvature="0"
       id="path1275"
       style="fill:#020000;fill-opacity:1;fill-rule:nonzero;stroke:none"
       d="m 53.863,43.992 c -0.054,0.156 -0.043,0.297 0.024,0.313 0.062,0.015 0.156,-0.094 0.207,-0.25 0.051,-0.153 0.039,-0.293 -0.024,-0.309 -0.066,-0.019 -0.16,0.094 -0.207,0.246" /></g></svg>